<?xml version="1.0" encoding="utf-8"?>
<!-- Generator: Adobe Illustrator 16.0.2, SVG Export Plug-In . SVG Version: 6.00 Build 0)  -->
<!DOCTYPE svg PUBLIC "-//W3C//DTD SVG 1.1//EN" "http://www.w3.org/Graphics/SVG/1.1/DTD/svg11.dtd">
<svg version="1.1" id="Layer_1" xmlns="http://www.w3.org/2000/svg" xmlns:xlink="http://www.w3.org/1999/xlink" x="0px" y="0px"
	 width="66.08px" height="66.684px" viewBox="0 0 66.08 66.684" enable-background="new 0 0 66.08 66.684" xml:space="preserve">
<g>
	<g>
		<path fill="#DD1F26" d="M45.865,55.815c-5.987,3.17-15.862,4.064-24.397-0.266C8.766,49.106,1.802,33.311,7.794,20.391
			c3.238-6.979,8.089-13.84,14.911-16.289c-0.175-1.051-0.175-1.574-0.51-2.438C14.086,4.364,7.06,10.254,3.187,18.604
			c-7.452,16.07-1.494,35.76,14.303,43.777c9.67,4.908,21.501,5.754,30.846,1.828C47.485,61.42,46.703,58.61,45.865,55.815z"/>
		<path fill="#DD1F26" d="M58.14,32.59c0.153,3.037-0.608,6.354-1.162,9.266c2.501,1.789,4.982,3.615,7.311,5.611
			c3.388-11.656,0.903-20.096,1.052-20.172c0.021-0.012,0.042-0.025,0.063-0.033C63.235,15.471,55.806,7.594,45.847,2.975
			c-5.564-2.58-11.498-3.422-17.187-2.758c0.032,0.195,0.52,1.766,0.867,2.486c4.544-0.318,11.341,1.695,16.753,5.818
			C54.719,14.948,58.431,22.831,58.14,32.59z"/>
	</g>
	<g>
		<path fill="#DD1F26" d="M14.395,41.366c5.574,9.795,18.079,13.232,27.873,7.656c9.796-5.572,13.55-18.777,7.977-28.572
			c-0.277-0.488-0.576-0.953-0.886-1.41c-1.136,2.08-1.418,2.148-1.288,2.379c3.856,6.777-0.438,19.305-7.214,23.158
			c-6.774,3.857-17.129,0.451-20.985-6.326c-3.854-6.775-1.479-15.422,5.295-19.279c3.793-2.158,8.165-2.352,11.965-0.926
			c1.165-2.643,1.815-3.318,3.235-6.754c-5.622-2.313-12.775-1.912-18.456,1.318C12.116,18.182,8.824,31.569,14.395,41.366z"/>
	</g>
	<g>
		<path fill="#DD1F26" d="M32.209,29.305c1.487-0.6,3.184,0.119,3.783,1.604c0.601,1.484,0.768,4.639-1.115,6.113
			c-1.517,1.18-3.55,1.438-4.737,1.346c-0.364,0.592-0.73,1.18-1.076,1.781c2.308,1.199,5.098,1.434,7.69,0.383
			c4.707-1.904,6.984-7.281,5.08-11.986c-1.906-4.709-7.282-6.984-11.99-5.078c-3.9,1.58-5.99,6.418-5.55,10.41
			c2.636-1.008,2.976-1.09,5.565-1.545C29.89,31.209,31.107,29.752,32.209,29.305z"/>
	</g>
</g>
</svg>
