<svg id="Слой_1" data-name="Слой 1" xmlns="http://www.w3.org/2000/svg" width="83.66mm" height="18.17mm" viewBox="0 0 237.15 51.52">
  <defs>
    <style>
      .cls-1 {
        fill: #fff;
      }
    </style>
  </defs>
  <title>лого_есличе</title>
  <g>
    <g>
      <path class="cls-1" d="M179.06,214h25.68v2l-1.14,1.14H183.06v14.84h16.84v3.14H183.06v15.69h21.69v3.14H179.06Z" transform="translate(-179.06 -202.95)"/>
      <path class="cls-1" d="M217.23,253.9c-5.48,0-8.56-3.14-8.56-7.7V231.36c0-4.57,3.08-7.7,8.56-7.7H231.5v2l-1.14,1.14H217.23a4.51,4.51,0,0,0-4.57,4.57v14.84a4.51,4.51,0,0,0,4.57,4.57H231.5v3.14Z" transform="translate(-179.06 -202.95)"/>
      <path class="cls-1" d="M234.35,251.33h1.14c2.28,0,4-1.65,4.28-4.85l2-22.83H262.6V253.9h-4V226.79H245.48l-1.71,19.69c-.4,4.85-3.42,8-8.27,8h-1.14Z" transform="translate(-179.06 -202.95)"/>
      <path class="cls-1" d="M276.29,253.9h-4.57V223.65h4v17.69l-.57,7.7h.29c5.48-8.5,11.3-16.89,16.84-25.4h4.57V253.9h-4V236.21l.57-7.7h-.29Z" transform="translate(-179.06 -202.95)"/>
      <path class="cls-1" d="M357.33,230.21a5.18,5.18,0,0,0,5.42,5.42h14V214h4V253.9h-4V238.77h-14c-6,0-9.42-3.37-9.42-8.56V214h4Z" transform="translate(-179.06 -202.95)"/>
      <path class="cls-1" d="M390.53,214h25.68v2l-1.14,1.14H394.53v14.84h16.84v3.14H394.53v15.69h21.69v3.14H390.53Zm8.85-10.84v5.71h-4v-5.71Zm12,0v5.71h-4v-5.71Z" transform="translate(-179.06 -202.95)"/>
    </g>
    <path class="cls-1" d="M335,253.9H318.27a5.59,5.59,0,0,1-5.58-5.58V208.53a5.59,5.59,0,0,1,5.58-5.58H335a5.59,5.59,0,0,1,5.58,5.58v39.78A5.59,5.59,0,0,1,335,253.9Zm-16.68-48a2.67,2.67,0,0,0-2.67,2.67v39.78a2.67,2.67,0,0,0,2.67,2.67H335a2.67,2.67,0,0,0,2.67-2.67V208.53a2.67,2.67,0,0,0-2.67-2.67Z" transform="translate(-179.06 -202.95)"/>
    <rect class="cls-1" x="135.36" y="10.86" width="24.39" height="2.91"/>
    <rect class="cls-1" x="134.81" y="33.35" width="25.48" height="2.91"/>
    <path class="cls-1" d="M326.61,249.43a4.34,4.34,0,1,1,4.34-4.34A4.35,4.35,0,0,1,326.61,249.43Zm0-5.78a1.43,1.43,0,1,0,1.43,1.43A1.44,1.44,0,0,0,326.61,243.65Z" transform="translate(-179.06 -202.95)"/>
    <rect class="cls-1" x="144.05" y="5.63" width="7.01" height="2.91"/>
  </g>
</svg>
