<svg xmlns="http://www.w3.org/2000/svg" width="10.03" height="10.031" viewBox="0 0 10.03 10.031">
  <metadata><?xpacket begin="﻿" id="W5M0MpCehiHzreSzNTczkc9d"?>
<x:xmpmeta xmlns:x="adobe:ns:meta/" x:xmptk="Adobe XMP Core 5.6-c142 79.160924, 2017/07/13-01:06:39        ">
   <rdf:RDF xmlns:rdf="http://www.w3.org/1999/02/22-rdf-syntax-ns#">
      <rdf:Description rdf:about=""/>
   </rdf:RDF>
</x:xmpmeta>
                                                                                                    
                                                                                                    
                                                                                                    
                                                                                                    
                                                                                                    
                                                                                                    
                                                                                                    
                                                                                                    
                                                                                                    
                                                                                                    
                                                                                                    
                                                                                                    
                                                                                                    
                                                                                                    
                                                                                                    
                                                                                                    
                                                                                                    
                                                                                                    
                                                                                                    
                                                                                                    
                           
<?xpacket end="w"?></metadata>
<defs>
    <style>
      .cls-1 {
        fill: #2052c9;
        fill-rule: evenodd;
      }
    </style>
  </defs>
  <path id="Shape_602_copy" data-name="Shape 602 copy" class="cls-1" d="M1213.65,103.393a1.21,1.21,0,0,1,0,1.692l-0.57.564a1.2,1.2,0,0,1-1.69,0l-2.4-2.4-2.39,2.4a1.2,1.2,0,0,1-1.69,0l-0.57-.564a1.21,1.21,0,0,1,0-1.692l2.4-2.4-2.4-2.4a1.21,1.21,0,0,1,0-1.692l0.57-.564a1.2,1.2,0,0,1,1.69,0l2.39,2.4,2.4-2.4a1.2,1.2,0,0,1,1.69,0l0.57,0.564a1.21,1.21,0,0,1,0,1.692l-2.4,2.4Z" transform="translate(-1204 -96)"/>
</svg>
